<svg width="51" height="27" viewBox="0 0 51 27" fill="none" xmlns="http://www.w3.org/2000/svg">
<g clip-path="url(#clip0_1_7)">
<path d="M0 15.5004H3.88138L6.03822 4.75291H2.15632L0 15.5004ZM2.37018 3.47105H6.26782L6.90837 0.255456H3.01225L2.37018 3.47105ZM5.39107 18.5247H9.27296L11.6447 6.91309H14.5558L14.9851 4.75291H12.1298L12.238 4.26693C12.3995 3.35096 12.7231 2.32252 14.1784 2.32252C15.042 2.32252 15.8501 2.37646 16.6583 2.75455L17.0901 0.486486C16.1894 0.16812 15.2417 0.0036669 14.2866 0C11.1596 0 9.00374 1.83654 8.19454 4.75291H6.8469L6.41564 6.91309H7.76328L5.39107 18.5247Z" fill="white"/>
<path d="M17.6829 15.7167C22.2653 15.7167 25.4462 11.5576 25.4462 8.15528C25.4462 5.617 23.1278 4.53665 20.8638 4.53665C15.8486 4.53665 13.1005 9.0219 13.1005 12.0981C13.1005 14.6363 15.4727 15.7167 17.6829 15.7167ZM29.9757 15.7167C34.5581 15.7167 37.739 11.5576 37.739 8.15528C37.739 5.617 35.3668 4.53665 33.1023 4.53665C28.0886 4.53665 25.3395 9.01935 25.3395 12.0981C25.3395 14.6363 27.7655 15.7167 29.9757 15.7167ZM44.0464 15.5004H47.874L51 0.218323H47.1186L46.2017 4.75496L44.5844 4.59314C40.8107 4.59314 37.3605 9.45342 37.3605 12.9102C37.3605 14.3142 38.2749 15.7187 39.8405 15.7187C42.0506 15.7187 43.6141 14.6384 44.2598 13.558H44.4752L44.0464 15.5004ZM32.0772 23.5478C29.0643 26.0486 25.1946 27.2697 21.295 26.9501C16.1732 26.626 12.5072 22.6832 11.8605 18.5247H12.0759C13.262 21.1199 16.1194 23.5478 19.6238 23.9254C23.1796 24.3574 27.441 22.7377 29.7588 20.523L27.1712 18.5247H34.9883L33.2612 26.8423L32.129 23.6017L32.0772 23.5478Z" fill="white"/>
</g>
<defs>
<clipPath id="clip0_1_7">
<rect width="51" height="27" fill="white"/>
</clipPath>
</defs>
</svg>
